<?xml version="1.0" standalone="no"?>
<!DOCTYPE svg PUBLIC "-//W3C//DTD SVG 20010904//EN"
 "http://www.w3.org/TR/2001/REC-SVG-20010904/DTD/svg10.dtd">
<svg version="1.0" xmlns="http://www.w3.org/2000/svg"
 width="119.000000pt" height="119.000000pt" viewBox="0 0 119.000000 119.000000"
 preserveAspectRatio="xMidYMid meet">
<metadata>
Created by potrace 1.14, written by Peter Selinger 2001-2017
</metadata>
<g transform="translate(0.000000,119.000000) scale(0.100000,-0.100000)"
fill="#000000" stroke="none">
<path d="M624 996 c-59 -27 -72 -48 -42 -68 18 -12 26 -11 66 9 88 44 202 21
259 -53 14 -19 24 -36 22 -38 -2 -1 -37 -25 -78 -52 -41 -27 -95 -68 -120 -92
-36 -33 -26 -28 42 23 48 36 106 74 128 85 l40 21 15 -36 c18 -43 34 -125 34
-172 0 -19 4 -32 8 -29 11 6 -4 128 -22 191 -9 27 -13 52 -11 56 5 6 64 21 95
23 8 1 20 5 27 9 6 4 14 1 16 -5 4 -10 6 -10 6 0 1 6 6 12 12 12 5 0 7 -5 3
-12 -4 -7 -3 -8 4 -4 7 4 12 14 12 23 0 13 -8 14 -50 9 -27 -4 -68 -13 -92
-22 -42 -15 -43 -14 -58 8 -8 13 -35 44 -60 69 -70 73 -162 89 -256 45z"/>
<path d="M740 635 c-8 -9 -8 -15 -2 -15 12 0 26 19 19 26 -2 2 -10 -2 -17 -11z"/>
<path d="M49 597 c-3 -56 -1 -149 5 -154 3 -3 6 12 6 35 l0 42 40 0 c22 0 40
5 40 10 0 6 -18 10 -40 10 -36 0 -40 3 -40 25 0 23 4 25 46 25 59 0 49 17 -11
18 -29 1 -45 -3 -46 -11z"/>
<path d="M339 602 c-5 -34 -3 -145 3 -155 4 -7 8 4 8 26 0 30 4 37 19 37 11 0
32 -16 47 -35 15 -20 29 -33 32 -30 3 3 -5 19 -17 36 l-23 31 21 14 c25 18 27
46 6 64 -17 14 -94 23 -96 12z m86 -42 c0 -22 -5 -25 -37 -28 -34 -3 -38 -1
-38 21 0 32 9 39 45 35 25 -2 30 -7 30 -28z"/>
<path d="M855 585 c-34 -33 -34 -87 0 -120 30 -30 58 -32 86 -4 25 25 17 39
-9 16 -43 -39 -82 -11 -82 57 0 57 54 80 86 38 7 -10 13 -11 18 -4 8 13 -31
42 -57 42 -10 0 -29 -11 -42 -25z"/>
<path d="M226 592 c-12 -21 -56 -146 -52 -150 3 -2 11 7 17 22 17 37 74 38 91
1 15 -34 30 -32 17 3 -6 15 -20 51 -31 80 -18 49 -31 62 -42 44z m28 -47 c8
-33 1 -44 -23 -38 -17 4 -18 9 -9 34 12 36 24 37 32 4z"/>
<path d="M490 519 c0 -51 4 -78 10 -74 6 3 10 32 11 63 l0 57 21 -55 c11 -30
24 -59 28 -63 4 -5 19 20 33 55 l26 63 1 -63 c0 -39 4 -61 10 -57 6 3 10 40
10 81 0 94 -18 99 -50 14 -12 -33 -24 -60 -26 -60 -1 0 -13 27 -25 60 -32 87
-49 80 -49 -21z"/>
<path d="M697 523 c-26 -73 -30 -113 -6 -59 10 21 19 26 46 26 27 0 35 -5 43
-25 12 -33 24 -32 16 0 -15 59 -48 135 -59 135 -7 0 -25 -34 -40 -77z m59 -8
c-3 -8 -13 -11 -24 -8 -17 4 -18 9 -9 40 l11 34 14 -26 c7 -15 11 -33 8 -40z"/>
<path d="M1063 525 c-17 -41 -27 -77 -23 -80 4 -2 12 7 18 20 17 37 74 36 91
-1 6 -15 14 -24 16 -22 9 8 -49 158 -60 158 -6 0 -25 -34 -42 -75z m45 -13
c-29 -5 -32 3 -17 39 l13 32 11 -34 c11 -31 10 -34 -7 -37z"/>
<path d="M995 550 c3 -5 8 -10 11 -10 2 0 4 5 4 10 0 6 -5 10 -11 10 -5 0 -7
-4 -4 -10z"/>
<path d="M517 414 c-9 -10 12 -46 24 -39 14 9 11 45 -4 45 -8 0 -17 -3 -20 -6z"/>
<path d="M53 350 c-71 -29 -46 -160 32 -160 32 0 74 39 54 51 -9 5 -17 3 -22
-6 -14 -26 -56 -18 -68 13 -22 55 21 104 59 68 11 -9 23 -12 31 -7 11 7 9 13
-8 30 -22 22 -42 25 -78 11z"/>
<path d="M239 353 c-10 -3 -27 -33 -44 -79 -28 -78 -26 -105 5 -66 23 28 60
28 83 2 33 -39 35 -10 5 67 -17 43 -31 78 -32 79 0 0 -8 -1 -17 -3z m20 -84
c1 -10 -28 -19 -33 -11 -2 4 1 18 6 32 10 24 11 24 18 5 5 -11 9 -23 9 -26z"/>
<path d="M453 352 c-7 -5 -11 -25 -9 -50 2 -23 0 -42 -5 -42 -4 0 -18 19 -31
43 -14 26 -32 43 -45 45 -21 3 -22 0 -22 -72 0 -55 4 -76 15 -80 15 -6 18 9
14 72 -1 17 1 32 3 32 3 0 19 -24 36 -54 21 -37 37 -53 49 -52 14 2 17 14 17
75 1 78 -4 94 -22 83z"/>
<path d="M525 354 c-11 -4 -12 -150 -2 -160 16 -17 27 15 27 81 0 72 -4 86
-25 79z"/>
<path d="M596 352 c-4 -3 -6 -41 -6 -84 l0 -78 46 4 c28 3 54 12 66 24 32 32
24 115 -12 127 -28 9 -88 13 -94 7z m75 -32 c13 -7 19 -21 19 -43 0 -39 -15
-57 -47 -57 -21 0 -23 4 -23 55 0 59 9 67 51 45z"/>
<path d="M771 352 c-7 -2 -11 -33 -11 -82 l0 -78 57 2 c71 2 89 26 19 26 -39
0 -46 3 -46 19 0 15 8 21 35 23 20 2 35 8 35 13 0 6 -15 11 -35 13 -27 2 -35
8 -35 23 0 16 7 19 41 19 55 0 47 24 -8 25 -22 0 -46 -1 -52 -3z"/>
<path d="M916 353 c-3 -3 -6 -41 -6 -84 l0 -78 50 2 c59 2 72 21 18 25 l-38 3
0 64 c0 59 -8 83 -24 68z"/>
<path d="M1073 350 c-47 -19 -59 -101 -20 -138 45 -42 110 -19 121 42 8 44
-14 91 -46 100 -28 7 -27 7 -55 -4z m63 -48 c7 -14 9 -35 5 -50 -6 -21 -13
-27 -36 -27 -37 0 -55 40 -37 80 15 33 51 31 68 -3z"/>
</g>
</svg>
